<?xml version="1.0" encoding="UTF-8"?>
<svg version="1.1" xmlns="http://www.w3.org/2000/svg" width="500" height="146">
<path d="M0 0 C8.25 0 16.5 0 25 0 C25 1.65 25 3.3 25 5 C27.31 5 29.62 5 32 5 C32.11214844 5.99966797 32.11214844 5.99966797 32.2265625 7.01953125 C33.34479485 14.85812079 35.45850768 23.23816301 41.8203125 28.5078125 C46.80276392 31.23101469 52.44012585 32.13411796 58 33 C58 34.65 58 36.3 58 38 C60.31 38.33 62.62 38.66 65 39 C65 47.25 65 55.5 65 64 C51.43599074 62.86966589 51.43599074 62.86966589 45.0625 60.625 C43.83660156 60.20476563 42.61070313 59.78453125 41.34765625 59.3515625 C38.32298468 58.13039988 35.76462537 56.708334 33 55 C32.99635437 55.63512009 32.99270874 56.27024017 32.98895264 56.92460632 C32.94682535 63.59340745 32.87727224 70.26153956 32.79248047 76.92993164 C32.76442406 79.41163408 32.7431341 81.89342334 32.72900391 84.37524414 C32.7073614 87.96284956 32.66060174 91.54942776 32.609375 95.13671875 C32.60814636 96.22893234 32.60691772 97.32114594 32.60565186 98.44645691 C32.39930895 109.53991739 29.74866351 120.05455745 23 129 C22.57074219 129.60328125 22.14148438 130.2065625 21.69921875 130.828125 C15.48349129 138.88230707 4.9798547 144.37702791 -5 146 C-19.59678266 147.05000441 -31.5761368 144.47601555 -43 135 C-44.01449219 134.15953125 -45.02898438 133.3190625 -46.07421875 132.453125 C-55.3552192 124.4932989 -62.67975144 115.15920075 -64.30249023 102.67236328 C-64.43568894 100.31447339 -64.46794112 97.9863614 -64.4375 95.625 C-64.42992676 94.79500488 -64.42235352 93.96500977 -64.41455078 93.10986328 C-64.10749511 81.63225684 -59.8342612 72.19260354 -51.96484375 63.83984375 C-40.3290395 52.86073392 -28.53515955 50.6072572 -13 51 C-13 52.98 -13 54.96 -13 57 C-10.69 57 -8.38 57 -6 57 C-6 65.58 -6 74.16 -6 83 C-9.96 83 -13.92 83 -18 83 C-24.04860188 85.04459782 -27.03574922 87.31843585 -30.08984375 92.9296875 C-32.72140579 98.91564408 -31.96192858 103.18280139 -29.7890625 109.08203125 C-29.01279115 111.03548618 -29.01279115 111.03548618 -28 113 C-22.29414036 114.90195321 -16.22853262 114.90252212 -10.6875 112.4375 C-6.24249021 109.90906326 -2.91922673 106.10281231 -1.45300388 101.15363693 C-0.99199196 98.9619288 -0.86165791 96.99806175 -0.84178162 94.76055908 C-0.8319928 93.92205917 -0.82220398 93.08355927 -0.81211853 92.21965027 C-0.80636307 91.30830826 -0.8006076 90.39696625 -0.79467773 89.45800781 C-0.78477814 88.49182022 -0.77487854 87.52563263 -0.76467896 86.53016663 C-0.73310158 83.33784431 -0.70832131 80.14550712 -0.68359375 76.953125 C-0.66302098 74.73923354 -0.64202442 72.52534598 -0.62062073 70.3114624 C-0.56543344 64.48524128 -0.51600937 58.6589849 -0.46777344 52.83270264 C-0.41753405 46.88713443 -0.3618607 40.94161741 -0.30664062 34.99609375 C-0.1990999 23.33077127 -0.09814796 11.6654053 0 0 Z " fill="#010001" transform="translate(64,0)"/>
<path d="M0 0 C1.12921875 -0.02449219 2.2584375 -0.04898438 3.421875 -0.07421875 C13.19123673 -0.10814014 21.43645951 1.87049049 28.71875 8.671875 C35.77089641 16.51558886 37.70268925 24.50748229 37.484375 34.91015625 C36.80719564 44.92112439 32.4311191 50.51523907 25.25 57.375 C17.9726228 63.66848937 9.59855079 63.73865505 0.4375 63.75 C-0.59181641 63.77449219 -1.62113281 63.79898438 -2.68164062 63.82421875 C-12.74800945 63.86242129 -20.63007916 61.25013239 -27.99609375 54.30078125 C-34.89994911 46.72037882 -37.24010465 38.86245899 -37.06640625 28.6953125 C-36.3538666 21.21804457 -33.00415422 13.80163908 -27.75 8.375 C-18.88780059 1.26882899 -11.13271978 0.01253685 0 0 Z M-11.75 22.375 C-15.04304866 27.82911185 -15.1061455 31.36921279 -13.75 37.375 C-12.06003629 41.5060224 -9.69070817 43.58979263 -5.70703125 45.64453125 C-1.62121063 47.16957807 2.05790153 47.12797691 6.171875 45.71484375 C10.83044925 43.41541928 13.51110483 40.26242726 15.25 35.375 C15.96000847 30.4049407 15.17927002 27.08366628 12.5 22.953125 C9.8152643 19.56364618 7.18180573 17.71346514 2.88671875 16.9609375 C-3.26563086 16.60617379 -7.54102485 17.75795247 -11.75 22.375 Z " fill="#000101" transform="translate(395.75,56.625)"/>
<path d="M0 0 C6.6 0 13.2 0 20 0 C20.33 10.89 20.66 21.78 21 33 C22.98 30.525 24.96 28.05 27 25.5 C31.57218961 20.40472766 35.39445553 17.60987972 42.33984375 17.00390625 C48.25724012 16.89880152 54.12675204 17.2885555 60 18 C56.84918206 21.79966033 53.66007076 25.40552772 50.09765625 28.82421875 C49.43572266 29.46037109 48.77378906 30.09652344 48.09179688 30.75195312 C46.7187408 32.06157638 45.33828535 33.36347834 43.95117188 34.65820312 C42.97180664 35.60663086 42.97180664 35.60663086 41.97265625 36.57421875 C41.37718994 37.13713623 40.78172363 37.70005371 40.16821289 38.2800293 C38.78008099 39.93260435 38.78008099 39.93260435 39.18188477 42.00610352 C40.57298814 45.39647691 42.76609469 48.27690705 44.875 51.25 C45.86849365 52.67447633 46.86198311 54.09895559 47.85546875 55.5234375 C48.90340052 57.01579729 49.95158129 58.50798226 51 60 C53.06932062 62.95364026 55.1303032 65.91290773 57.1875 68.875 C57.66880371 69.55852539 58.15010742 70.24205078 58.64599609 70.94628906 C62 75.77418931 62 75.77418931 62 78 C55.08225188 79.21166061 47.78173187 80.23899264 41 78 C35.57576709 73.61307059 32.40439481 67.28211689 29.21044922 61.19384766 C27.74823519 58.54369533 25.9969609 56.26948733 24 54 C21.92329908 55.68988817 21.07665372 56.59786013 20.56762695 59.26831055 C20.54144287 60.13238525 20.51525879 60.99645996 20.48828125 61.88671875 C20.45283203 62.82451172 20.41738281 63.76230469 20.38085938 64.72851562 C20.35830078 65.70498047 20.33574219 66.68144531 20.3125 67.6875 C20.27833984 68.67556641 20.24417969 69.66363281 20.20898438 70.68164062 C20.12650431 73.12069399 20.06157567 75.56032939 20 78 C13.4 78 6.8 78 0 78 C0 52.26 0 26.52 0 0 Z " fill="#000000" transform="translate(438,42)"/>
<path d="M0 0 C6.27 0 12.54 0 19 0 C19.33 11.22 19.66 22.44 20 34 C22.165625 31.36 24.33125 28.72 26.5625 26 C31.22374341 20.86514895 35.11801754 17.61694515 42.18359375 16.9375 C47.82603519 16.82617322 53.41079327 17.23596543 59 18 C57.64097761 21.07855041 56.14481221 23.05101699 53.6640625 25.3125 C52.68566406 26.21355469 52.68566406 26.21355469 51.6875 27.1328125 C50.6665625 28.05707031 50.6665625 28.05707031 49.625 29 C48.2833223 30.22858609 46.94216199 31.45773748 45.6015625 32.6875 C44.97540039 33.25984375 44.34923828 33.8321875 43.70410156 34.421875 C41.75039773 36.2311503 39.85884012 38.09349732 38 40 C39.37589698 43.82537149 41.14201612 46.88690826 43.484375 50.203125 C44.51691406 51.67458984 44.51691406 51.67458984 45.5703125 53.17578125 C46.64925781 54.69751953 46.64925781 54.69751953 47.75 56.25 C62 76.47664835 62 76.47664835 62 78 C44.48725739 80.37779196 44.48725739 80.37779196 39.00634766 76.640625 C35.67730042 73.19216312 33.33440574 69.19468963 31.10546875 64.97607422 C29.94453965 62.90086217 28.63305393 61.03890984 27.21875 59.12890625 C25 56 25 56 25 54 C22.34011932 55.32054048 22.34011932 55.32054048 20 58 C19.21830885 61.40416321 19.20944773 64.76762655 19.1875 68.25 C19.16236328 69.18585938 19.13722656 70.12171875 19.11132812 71.0859375 C19.05254658 73.3901741 19.02338888 75.69513242 19 78 C12.73 78 6.46 78 0 78 C0 52.26 0 26.52 0 0 Z " fill="#000000" transform="translate(242,42)"/>
<path d="M0 0 C19.47 0 38.94 0 59 0 C57.58320359 6.37558385 56.1198329 11.92956941 54 18 C49.05 18 44.1 18 39 18 C39 37.8 39 57.6 39 78 C32.4 78 25.8 78 19 78 C19 57.87 19 37.74 19 17 C12.73 17 6.46 17 0 17 C0 11.39 0 5.78 0 0 Z " fill="#000000" transform="translate(307,42)"/>
<path d="M0 0 C19.14 0 38.28 0 58 0 C57.03336534 6.76644262 55.41524139 11.68920797 53 18 C48.05 18 43.1 18 38 18 C38 37.8 38 57.6 38 78 C31.4 78 24.8 78 18 78 C18 57.87 18 37.74 18 17 C12.06 17 6.12 17 0 17 C0 11.39 0 5.78 0 0 Z " fill="#000000" transform="translate(155,42)"/>
<path d="M0 0 C2.31 0.33 4.62 0.66 7 1 C7 9.25 7 17.5 7 26 C-6.56400926 24.86966589 -6.56400926 24.86966589 -12.9375 22.625 C-14.16339844 22.20476563 -15.38929687 21.78453125 -16.65234375 21.3515625 C-19.67701532 20.13039988 -22.23537463 18.708334 -25 17 C-25.00364563 17.63512009 -25.00729126 18.27024017 -25.01104736 18.92460632 C-25.05317465 25.59340745 -25.12272776 32.26153956 -25.20751953 38.92993164 C-25.23557594 41.41163408 -25.2568659 43.89342334 -25.27099609 46.37524414 C-25.2926386 49.96284956 -25.33939826 53.54942776 -25.390625 57.13671875 C-25.39185364 58.22893234 -25.39308228 59.32114594 -25.39434814 60.44645691 C-25.60069105 71.53991739 -28.25133649 82.05455745 -35 91 C-35.42925781 91.60328125 -35.85851562 92.2065625 -36.30078125 92.828125 C-42.51650871 100.88230707 -53.0201453 106.37702791 -63 108 C-76.69867655 108.98540008 -87.96009721 106.86818625 -99.171875 98.5859375 C-101 97 -101 97 -102 95 C-101.2884375 95.28617187 -100.576875 95.57234375 -99.84375 95.8671875 C-98.43609375 96.42792969 -98.43609375 96.42792969 -97 97 C-96.1234375 97.35320312 -95.246875 97.70640625 -94.34375 98.0703125 C-81.43160593 102.85915714 -69.38312595 101.86344347 -56.875 96.3125 C-45.90148522 90.35352169 -39.1844567 80.8685783 -35.54296875 69.10546875 C-34.46313492 64.91819945 -33.86839884 60.98741777 -33.79467773 56.65893555 C-33.77473251 55.6182341 -33.75478729 54.57753265 -33.73423767 53.5052948 C-33.71752518 52.3936647 -33.70081268 51.28203461 -33.68359375 50.13671875 C-33.6524221 48.41603935 -33.6524221 48.41603935 -33.62062073 46.66059875 C-33.55533381 43.00295902 -33.49633714 39.34524862 -33.4375 35.6875 C-33.39429496 33.20507087 -33.35068003 30.72264884 -33.30664062 28.24023438 C-33.19967378 22.16023055 -33.09786886 16.08015671 -33 10 C-31.86232178 10.45620728 -31.86232178 10.45620728 -30.70166016 10.92163086 C-27.60167061 12.1589934 -24.48986927 13.36309632 -21.375 14.5625 C-20.24835938 14.99691406 -19.12171875 15.43132813 -17.9609375 15.87890625 C-13.76831178 17.46635161 -10.2781152 18.22637843 -5.8125 18.5625 C-3.894375 18.706875 -1.97625 18.85125 0 19 C0 12.73 0 6.46 0 0 Z " fill="#FC004E" transform="translate(122,38)"/>
<path d="M0 0 C8.25 0 16.5 0 25 0 C25 1.98 25 3.96 25 6 C19.39 6 13.78 6 8 6 C8.00666183 7.20998657 8.01332367 8.41997314 8.02018738 9.66662598 C8.08106991 21.08383398 8.126007 32.50100893 8.15543652 43.91834259 C8.17107527 49.78775309 8.19228108 55.65703226 8.22631836 61.52636719 C8.25897529 67.19330634 8.27686648 72.86011937 8.28463173 78.52714539 C8.29016384 80.68643681 8.30096668 82.84572154 8.31719017 85.00495911 C8.33904835 88.03535746 8.34196338 91.06523829 8.34057617 94.09570312 C8.351362 94.98331329 8.36214783 95.87092346 8.3732605 96.78543091 C8.33663249 104.20682947 6.80439386 110.97422008 1.64453125 116.6796875 C-2.76580395 120.22052669 -8.10730967 121.73893926 -13.625 122.5 C-18.82228772 121.73003145 -23.36952023 120.01239396 -26.734375 115.859375 C-27.15203125 115.24578125 -27.5696875 114.6321875 -28 114 C-27.154375 114.04640625 -26.30875 114.0928125 -25.4375 114.140625 C-18.48082749 114.36197367 -12.59632401 114.53791758 -7 110 C-2.69048309 105.34485768 -0.89813799 101.10467664 -0.84178162 94.76055908 C-0.8319928 93.92205917 -0.82220398 93.08355927 -0.81211853 92.21965027 C-0.80636307 91.30830826 -0.8006076 90.39696625 -0.79467773 89.45800781 C-0.78477814 88.49182022 -0.77487854 87.52563263 -0.76467896 86.53016663 C-0.73310158 83.33784431 -0.70832131 80.14550712 -0.68359375 76.953125 C-0.66302098 74.73923354 -0.64202442 72.52534598 -0.62062073 70.3114624 C-0.56543344 64.48524128 -0.51600937 58.6589849 -0.46777344 52.83270264 C-0.41753405 46.88713443 -0.3618607 40.94161741 -0.30664062 34.99609375 C-0.1990999 23.33077127 -0.09814796 11.6654053 0 0 Z " fill="#00E9E1" transform="translate(64,0)"/>
<path d="M0 0 C6.27 0 12.54 0 19 0 C19 17.49 19 34.98 19 53 C12.73 53 6.46 53 0 53 C0 35.51 0 18.02 0 0 Z " fill="#000000" transform="translate(216,67)"/>
<path d="M0 0 C0.04254356 1.99954746 0.04080783 4.00041636 0 6 C-1.73917432 7.73917432 -4.37811393 7.38100215 -6.75 7.625 C-17.40522267 9.20571985 -27.35567219 14.38504478 -34 23 C-41.16322093 32.76648174 -44.28136129 43.91364617 -43 56 C-41.22077083 65.41186444 -37.4497287 73.21467328 -32 81 C-41.75023086 76.4966254 -45.94028332 67.41533162 -50 58 C-53.53802141 45.98795636 -51.54287465 32.40915094 -45.71484375 21.62109375 C-39.24433914 10.96909313 -29.82548017 4.73891806 -18.25 0.6875 C-12.30364901 -0.62708586 -6.04873511 -0.15291746 0 0 Z " fill="#00EFE7" transform="translate(51,51)"/>
<path d="M0 0 C2.64 0 5.28 0 8 0 C8 8.58 8 17.16 8 26 C4.04 26 0.08 26 -4 26 C-10.04901037 28.0447359 -13.04335609 30.31957022 -16.08984375 35.9375 C-19.24429321 43.08578033 -17.2703868 48.90664464 -15 56 C-20.10646993 53.69665612 -23.02456967 50.1366569 -25.3125 45.125 C-26.75725907 38.55791333 -26.58633598 33.76592801 -23.34375 27.89453125 C-20.40585045 23.75243451 -16.82195802 20.60731934 -12 19 C-7.99616868 18.86600297 -4.0072645 18.95691113 0 19 C0 12.73 0 6.46 0 0 Z " fill="#F9004D" transform="translate(50,57)"/>
<path d="M0 0 C7.99364541 0.03401551 13.73778287 1.97761781 20 7 C27.07505317 14.2080429 30.10595434 20.90747763 30.375 30.9375 C30.0358248 42.73325983 26.55249479 48.83023303 18 57 C12.134926 62.07212693 5.61262319 63.31071931 -2 63 C-2 62.67 -2 62.34 -2 62 C-1.07380859 61.79697266 -1.07380859 61.79697266 -0.12890625 61.58984375 C8.42647076 59.41518932 15.03384659 55.42202363 19.9375 47.9375 C24.61319868 40.01059866 25.43457423 31.12485883 23.34765625 22.21484375 C20.37832146 13.96952355 15.61139419 8.05569709 7.75 4.125 C6.91984375 3.75632813 6.0896875 3.38765625 5.234375 3.0078125 C3 2 3 2 0 0 Z " fill="#FA004D" transform="translate(403,57)"/>
<path d="M0 0 C-2.58968864 1.72645909 -4.92652178 2.87109507 -7.75 4.125 C-15.64589741 8.0729487 -20.40029256 13.99995995 -23.33984375 22.296875 C-25.78088069 32.29212686 -23.6599005 40.40982546 -18.78515625 49.1875 C-14.51102917 55.72877275 -7.74795301 59.89628052 -0.16015625 61.66015625 C0.55269531 61.77230469 1.26554687 61.88445312 2 62 C2 62.33 2 62.66 2 63 C-6.15156659 63.70883188 -13.02962674 60.93040682 -19.3125 55.75 C-25.3444062 50.05929254 -29.42481157 43.2703312 -30.3359375 34.921875 C-30.4606278 24.7970226 -28.23881058 15.47644831 -21 8 C-14.51013566 2.79609026 -8.48247378 -0.40392732 0 0 Z " fill="#00EDE6" transform="translate(389,57)"/>
<path d="M0 0 C3.24268686 2.64534981 4.80645745 4.58068793 5.375 8.75 C4.97388773 12.22630637 4.086378 14.26944512 1.69140625 16.85546875 C-1.08469117 18.73398271 -3.56118881 18.75802839 -6.83984375 18.51171875 C-10.53044369 17.63745366 -11.97047452 16.14249107 -14 13 C-14.97986268 8.66060814 -14.52314045 5.84784832 -12.1875 2.0625 C-8.23297568 -1.6660515 -5.07693841 -1.15789823 0 0 Z " fill="#000000" transform="translate(230,43)"/>
<path d="M0 0 C2.31 0 4.62 0 7 0 C7.08636719 0.68964844 7.17273438 1.37929687 7.26171875 2.08984375 C8.18984668 8.29723148 9.67684657 12.93041169 13.07421875 18.22265625 C13.37972656 18.80917969 13.68523437 19.39570313 14 20 C13.67 20.66 13.34 21.32 13 22 C5.12395344 16.13875605 1.50236915 9.6869175 0 0 Z " fill="#F8004C" transform="translate(89,5)"/>
<path d="M0 0 C0.94875 0.45375 1.8975 0.9075 2.875 1.375 C7.42383401 3.34585006 12.13502224 4.16796155 17 5 C17 6.98 17 8.96 17 11 C10.39798452 8.89722283 4.89443348 7.02671546 0 2 C0 1.34 0 0.68 0 0 Z " fill="#00EAE2" transform="translate(105,28)"/>
</svg>
